<mxfile host="www.draw.io" modified="2019-12-23T15:57:28.486Z" agent="Mozilla/5.0 (Macintosh; Intel Mac OS X 10_13_6) AppleWebKit/537.36 (KHTML, like Gecko) Chrome/77.0.3865.120 Safari/537.36" etag="GDXD_2S0JQNM2LptewIQ" version="12.4.3" type="github" pages="1">
  <diagram id="Sr2y8E48ZZrtgwOpP8ap" name="Page-1">
    <mxGraphModel dx="1410" dy="647" grid="1" gridSize="10" guides="1" tooltips="1" connect="1" arrows="1" fold="1" page="1" pageScale="1" pageWidth="827" pageHeight="1169" math="0" shadow="0">
      <root>
        <mxCell id="0"/>
        <mxCell id="1" parent="0"/>
        <mxCell id="795kp8MBvgSKVHXz9DKC-1" value="&lt;span style=&quot;color: rgb(51 , 51 , 51) ; font-family: &amp;#34;open sans&amp;#34; , &amp;#34;clear sans&amp;#34; , &amp;#34;helvetica neue&amp;#34; , &amp;#34;helvetica&amp;#34; , &amp;#34;arial&amp;#34; , sans-serif ; font-size: 16px ; white-space: pre-wrap&quot;&gt;1c7af75&lt;/span&gt;" style="rounded=1;whiteSpace=wrap;html=1;fillColor=#dae8fc;strokeColor=#6c8ebf;" parent="1" vertex="1">
          <mxGeometry x="50" y="200" width="90" height="50" as="geometry"/>
        </mxCell>
        <mxCell id="jVZEl1FH-rObJHTlhoI0-1" value="&lt;span style=&quot;color: rgb(51 , 51 , 51) ; font-family: &amp;#34;open sans&amp;#34; , &amp;#34;clear sans&amp;#34; , &amp;#34;helvetica neue&amp;#34; , &amp;#34;helvetica&amp;#34; , &amp;#34;arial&amp;#34; , sans-serif ; font-size: 16px ; white-space: pre-wrap&quot;&gt;06adc0d&lt;/span&gt;" style="rounded=1;whiteSpace=wrap;html=1;fillColor=#dae8fc;strokeColor=#6c8ebf;" vertex="1" parent="1">
          <mxGeometry x="190" y="200" width="90" height="50" as="geometry"/>
        </mxCell>
        <mxCell id="jVZEl1FH-rObJHTlhoI0-2" value="" style="endArrow=classic;html=1;entryX=1;entryY=0.5;entryDx=0;entryDy=0;exitX=0;exitY=0.5;exitDx=0;exitDy=0;" edge="1" parent="1" source="jVZEl1FH-rObJHTlhoI0-1" target="795kp8MBvgSKVHXz9DKC-1">
          <mxGeometry width="50" height="50" relative="1" as="geometry">
            <mxPoint x="190" y="230" as="sourcePoint"/>
            <mxPoint x="240" y="180" as="targetPoint"/>
          </mxGeometry>
        </mxCell>
        <mxCell id="jVZEl1FH-rObJHTlhoI0-3" value="" style="endArrow=classic;html=1;exitX=0;exitY=0.5;exitDx=0;exitDy=0;entryX=1;entryY=0.5;entryDx=0;entryDy=0;" edge="1" parent="1" source="jVZEl1FH-rObJHTlhoI0-4" target="jVZEl1FH-rObJHTlhoI0-1">
          <mxGeometry width="50" height="50" relative="1" as="geometry">
            <mxPoint x="240" y="270" as="sourcePoint"/>
            <mxPoint x="290" y="220" as="targetPoint"/>
          </mxGeometry>
        </mxCell>
        <mxCell id="jVZEl1FH-rObJHTlhoI0-4" value="&lt;span style=&quot;color: rgb(51 , 51 , 51) ; font-family: &amp;#34;open sans&amp;#34; , &amp;#34;clear sans&amp;#34; , &amp;#34;helvetica neue&amp;#34; , &amp;#34;helvetica&amp;#34; , &amp;#34;arial&amp;#34; , sans-serif ; font-size: 16px ; white-space: pre-wrap&quot;&gt;1901182&lt;/span&gt;" style="rounded=1;whiteSpace=wrap;html=1;fillColor=#dae8fc;strokeColor=#6c8ebf;" vertex="1" parent="1">
          <mxGeometry x="330" y="200" width="90" height="50" as="geometry"/>
        </mxCell>
        <mxCell id="jVZEl1FH-rObJHTlhoI0-5" value="" style="endArrow=classic;html=1;entryX=1;entryY=0.5;entryDx=0;entryDy=0;exitX=0;exitY=0.5;exitDx=0;exitDy=0;" edge="1" parent="1" source="795kp8MBvgSKVHXz9DKC-1" target="jVZEl1FH-rObJHTlhoI0-6">
          <mxGeometry width="50" height="50" relative="1" as="geometry">
            <mxPoint x="60" y="360" as="sourcePoint"/>
            <mxPoint x="110" y="310" as="targetPoint"/>
          </mxGeometry>
        </mxCell>
        <mxCell id="jVZEl1FH-rObJHTlhoI0-6" value="&lt;span style=&quot;color: rgb(51 , 51 , 51) ; font-family: &amp;#34;open sans&amp;#34; , &amp;#34;clear sans&amp;#34; , &amp;#34;helvetica neue&amp;#34; , &amp;#34;helvetica&amp;#34; , &amp;#34;arial&amp;#34; , sans-serif ; font-size: 16px ; white-space: pre-wrap&quot;&gt;c2a93da&lt;/span&gt;" style="rounded=1;whiteSpace=wrap;html=1;fillColor=#dae8fc;strokeColor=#6c8ebf;" vertex="1" parent="1">
          <mxGeometry x="-90" y="200" width="90" height="50" as="geometry"/>
        </mxCell>
        <mxCell id="jVZEl1FH-rObJHTlhoI0-7" value="" style="endArrow=classic;html=1;entryX=0.5;entryY=1;entryDx=0;entryDy=0;exitX=0.5;exitY=0;exitDx=0;exitDy=0;" edge="1" parent="1" source="jVZEl1FH-rObJHTlhoI0-8" target="795kp8MBvgSKVHXz9DKC-1">
          <mxGeometry width="50" height="50" relative="1" as="geometry">
            <mxPoint x="95" y="310" as="sourcePoint"/>
            <mxPoint x="120" y="260" as="targetPoint"/>
          </mxGeometry>
        </mxCell>
        <mxCell id="jVZEl1FH-rObJHTlhoI0-8" value="&lt;font style=&quot;font-size: 14px&quot;&gt;master&lt;/font&gt;" style="rounded=0;whiteSpace=wrap;html=1;fillColor=#f8cecc;strokeColor=#b85450;" vertex="1" parent="1">
          <mxGeometry x="65" y="300" width="60" height="30" as="geometry"/>
        </mxCell>
        <mxCell id="jVZEl1FH-rObJHTlhoI0-10" value="&lt;font style=&quot;font-size: 14px&quot;&gt;alice&lt;/font&gt;" style="rounded=0;whiteSpace=wrap;html=1;fillColor=#f8cecc;strokeColor=#b85450;" vertex="1" parent="1">
          <mxGeometry x="345" y="300" width="60" height="30" as="geometry"/>
        </mxCell>
        <mxCell id="jVZEl1FH-rObJHTlhoI0-11" value="&lt;font style=&quot;font-size: 14px&quot;&gt;bob&lt;/font&gt;" style="rounded=0;whiteSpace=wrap;html=1;fillColor=#f8cecc;strokeColor=#b85450;" vertex="1" parent="1">
          <mxGeometry x="345" y="110" width="60" height="30" as="geometry"/>
        </mxCell>
        <mxCell id="jVZEl1FH-rObJHTlhoI0-12" value="" style="endArrow=classic;html=1;entryX=0.5;entryY=1;entryDx=0;entryDy=0;exitX=0.5;exitY=0;exitDx=0;exitDy=0;" edge="1" parent="1" source="jVZEl1FH-rObJHTlhoI0-10" target="jVZEl1FH-rObJHTlhoI0-4">
          <mxGeometry width="50" height="50" relative="1" as="geometry">
            <mxPoint x="320" y="320" as="sourcePoint"/>
            <mxPoint x="370" y="270" as="targetPoint"/>
          </mxGeometry>
        </mxCell>
        <mxCell id="jVZEl1FH-rObJHTlhoI0-13" value="" style="endArrow=classic;html=1;exitX=0.5;exitY=1;exitDx=0;exitDy=0;entryX=0.5;entryY=0;entryDx=0;entryDy=0;" edge="1" parent="1" source="jVZEl1FH-rObJHTlhoI0-11" target="jVZEl1FH-rObJHTlhoI0-4">
          <mxGeometry width="50" height="50" relative="1" as="geometry">
            <mxPoint x="290" y="210" as="sourcePoint"/>
            <mxPoint x="340" y="160" as="targetPoint"/>
          </mxGeometry>
        </mxCell>
      </root>
    </mxGraphModel>
  </diagram>
</mxfile>
